# xmcd
#
# Track frame offsets:
#	150
#	11122
#	23006
#	34391
#	46481
#	59132
#	78741
#	93775
#	106487
#	119646
#	141561
#
# Disc length: 2020 seconds
# Revision: 0
# Processed by: cddbd v1.5.2PL0 Copyright (c) Steve Scherf et al.
# Submitted via: dBpowerAMP V12.0
#
DISCID=a107e20b
DTITLE=Conway Twitty - The Best of Conway Twitty
DYEAR=2015
DGENRE=Country
TTITLE0=Hello Darlin'
TTITLE1=After the Fire Is Gone
TTITLE2=Louisiana Woman, Mississippi Man
TTITLE3=Linda On My Mind
TTITLE4=I See the Want In Your Eyes
TTITLE5=Don't Cry Joni
TTITLE6=I'd Just Love To Lay You Down
TTITLE7=Tight Fittin' Jeans
TTITLE8=Slow Hand
TTITLE9=That's My Job
TTITLE10=It's Only Make Believe
EXTD=
EXTT0=
EXTT1=
EXTT2=
EXTT3=
EXTT4=
EXTT5=
EXTT6=
EXTT7=
EXTT8=
EXTT9=
EXTT10=
PLAYORDER=
